# AST/ASF file generated using VICON BodyLanguage
# -----------------------------------------------
:version 1.10
:name VICON
:units
  mass 1.0
  length 0.45
  angle deg
:documentation
   .ast/.asf automatically generated from VICON data using
   VICON BodyBuilder and BodyLanguage model FoxedUp or BRILLIANT.MOD
:root
   order TX TY TZ RX RY RZ
   axis XYZ
   position 0 0 0  
   orientation 0 0 0 
:bonedata
  begin
     id 1 
     name lhipjoint
     direction 0.522423 -0.726805 0.445902 
     length 2.25074 
     axis 0 0 0  XYZ
  end
  begin
     id 2 
     name lfemur
     direction 0.34202 -0.939693 0  
     length 6.54609  
     axis 0 0 20  XYZ
    dof rx ry rz
    limits (-160.0 20.0)
           (-70.0 70.0)
           (-60.0 70.0)
  end
  begin
     id 3 
     name ltibia
     direction 0.34202 -0.939693 0   
     length 7.7528   
     axis 0 0 20   XYZ
    dof rx
    limits (-10.0 170.0)
  end
  begin
     id 4 
     name lfoot
     direction 0.143696 -0.394801 0.90746   
     length 1.73269   
     axis -90 7.62852e-016 20   XYZ
    dof rx rz
    limits (-45.0 90.0)
           (-70.0 20.0)
  end
  begin
     id 5 
     name ltoes
     direction 1.53633e-011 -4.21912e-011 1   
     length 0.858383   
     axis -90 7.62852e-016 20   XYZ
    dof rx
    limits (-90.0 20.0)
  end
  begin
     id 6 
     name rhipjoint
     direction -0.515943 -0.73016 0.447961   
     length 2.2404  
     axis 0 0 0  XYZ 
  end
  begin
     id 7 
     name rfemur
     direction -0.34202 -0.939693 0   
     length 6.84377   
     axis 0 0 -20   XYZ
    dof rx ry rz
    limits (-160.0 20.0)
           (-70.0 70.0)
           (-70.0 60.0)
  end
  begin
     id 8 
     name rtibia
     direction -0.34202 -0.939693 0   
     length 7.57596   
     axis 0 0 -20   XYZ
    dof rx
    limits (-10.0 170.0)
 end
 begin
     id 9 
     name rfoot
     direction -0.0999372 -0.274575 0.956358   
     length 1.78783  
     axis -90 -7.62852e-016 -20   XYZ
    dof rx rz
    limits (-45.0 90.0)
           (-20.0 70.0)
  end
  begin
     id 10 
     name rtoes
     direction -1.53535e-011 -4.21895e-011 1   
     length 0.898614   
     axis -90 -7.62852e-016 -20   XYZ
    dof rx
    limits (-90.0 20.0)
  end
  begin
     id 11 
     name lowerback
     direction -0.011775 0.996164 -0.0867116   
     length 1.91499   
     axis 0 0 0   XYZ
    dof rx ry rz
    limits (-20.0 45.0)
           (-30.0 30.0)
           (-30.0 30.0)
  end
  begin
     id 12 
     name upperback
     direction -0.00189771 0.999673 -0.0254833   
     length 1.92213   
     axis 0 0 0   XYZ
    dof rx ry rz
    limits (-20.0 45.0)
           (-30.0 30.0)
           (-30.0 30.0)
  end
  begin
     id 13 
     name thorax
     direction 0.00335995 0.999878 0.0152401   
     length 1.93138   
     axis 0 0 0   XYZ
    dof rx ry rz
    limits (-20.0 45.0)
           (-30.0 30.0)
           (-30.0 30.0)
  end
  begin
     id 14 
     name lowerneck
     direction 0.00233191 0.998509 0.0545404   
     length 1.59408   
     axis 0 0 0   XYZ
    dof rx ry rz
    limits (-20.0 45.0)
           (-30.0 30.0)
           (-30.0 30.0)
  end
  begin
     id 15 
     name upperneck
     direction 0.07881 0.9956 -0.0506934   
     length 1.59344   
     axis 0 0 0   XYZ
    dof rx ry rz
    limits (-20.0 45.0)
           (-30.0 30.0)
           (-30.0 30.0)
  end
  begin
     id 16
     name head
     direction 0.0261681 0.999378 -0.0236299  
     length 1.60935  
     axis 0 0 0   XYZ
    dof rx ry rz
    limits (-20.0 45.0)
           (-30.0 30.0)
           (-30.0 30.0)
  end
  begin
     id 17 
     name lclavicle
     direction 0.96643 0.252035 0.0499195  
     length 3.82153  
     axis 0 0 0   XYZ
    dof ry rz
    limits (-20.0 10.0)
           (0.0 20.0)
  end
  begin
     id 18 
     name lhumerus
     direction 1 -4.48967e-011 -2.01614e-018   
     length 4.87796   
     axis 180 -30 -90   XYZ
    dof rx ry rz
    limits (-60.0 90.0)
           (-90.0 90.0)
           (-90.0 90.0)
  end
  begin
     id 19
     name lradius
     direction 1 -4.48958e-011 3.1409e-027   
     length 3.23169   
     axis 180 -30 -90   XYZ
    dof rx
    limits (-10.0 170.0)
  end
  begin
     id 20
     name lwrist
     direction 1 -4.48924e-011 1.0365e-027   
     length 1.61584   
     axis -2.56395e-016 90 90   XYZ
    dof ry
    limits (-180.0 0.0)
 end
  begin
     id 21 
     name lhand
     direction 1 -4.49055e-011 2.09488e-027   
     length 0.731324   
     axis -1.32723e-015 90 90   XYZ
    dof rx rz
    limits (-90.0 90.0)
           (-45.0 45.0)
  end
  begin
     id 22 
     name lfingers
     direction 1 -4.48935e-011 4.14981e-027   
     length 0.589612   
     axis -2.6545e-015 90 90   XYZ
    dof rx
    limits (0.0 90.0)
  end
  begin
     id 23
     name lthumb
     direction 0.707107 -6.35097e-011 0.707107   
     length 0.846569   
     axis -90 45 5.05613e-014   XYZ
    dof rx rz
    limits (-45.0 45.0)
           (-45.0 45.0)
  end
  begin
     id 24 
     name rclavicle
     direction -0.979337 0.201016 0.0221522   
     length 3.73827  
     axis 0 0 0   XYZ 
    dof ry rz
    limits (-10.0 20.0)
           (-20.0 0.0)
  end
  begin
     id 25 
     name rhumerus
     direction -1 -4.48971e-011 1.65907e-027  
     length 4.9143   
     axis 180 30 90   XYZ
    dof rx ry rz
    limits (-90.0 60.0)
           (-90.0 90.0)
           (-90.0 90.0)
  end
  begin
     id 26 
     name rradius
     direction -1 -4.4894e-011 2.17871e-028   
     length 3.29093   
     axis 180 30 90   XYZ
    dof rx
    limits (-10.0 170.0)
  end
  begin
     id 27 
     name rwrist
     direction -1 -4.48971e-011 1.04038e-027   
     length 1.64546   
     axis -2.56395e-016 -90 -90   XYZ
    dof ry
    limits (-180.0 0.0)
  end
  begin
     id 28
     name rhand
     direction -1 -4.49017e-011 2.08843e-027   
     length 0.54512   
     axis -1.32723e-015 -90 -90   XYZ
    dof rx rz
    limits (-90.0 90.0)
           (-45.0 45.0)
  end
  begin
     id 29
     name rfingers
     direction -1 -4.48918e-011 4.1439e-027   
     length 0.43949   
     axis -2.6545e-015 -90 -90   XYZ
    dof rx
    limits (0.0 90.0)
  end
  begin
     id 30
     name rthumb
     direction -0.707107 -6.35065e-011 0.707107   
     length 0.631022   
     axis -90 -45 -5.05613e-014   XYZ
    dof rx rz
    limits (-45.0 45.0)
           (-45.0 45.0)
  end
:hierarchy
  begin
    root lhipjoint rhipjoint lowerback
    lhipjoint lfemur
    lfemur ltibia
    ltibia lfoot
    lfoot ltoes
    rhipjoint rfemur
    rfemur rtibia
    rtibia rfoot
    rfoot rtoes
    lowerback upperback
    upperback thorax
    thorax lowerneck lclavicle rclavicle
    lowerneck upperneck
    upperneck head
    lclavicle lhumerus
    lhumerus lradius
    lradius lwrist
    lwrist lhand lthumb
    lhand lfingers
    rclavicle rhumerus
    rhumerus rradius
    rradius rwrist
    rwrist rhand rthumb
    rhand rfingers
  end

#!OML:ASF H:\BreakDance\Project 1\Capture day 1\Session 1\Male.ASF
:FULLY-SPECIFIED
:DEGREES
2391
root -9.46128 8.70835 -6.65075 961.676 -40.2987 -613.362
lowerback 2.22769 -5.52442 -2.61177
upperback 5.38088 -7.60648 -2.43634
thorax 4.3222 -3.9698 -1.19991
lowerneck -4.76692 8.86309 2.63585
upperneck -1.84375 11.5855 -23.2227
head 1.89713 5.20765 -7.03406
rclavicle 1.47896e-013 1.46306e-013
rhumerus -21.5863 -47.7178 -48.9502
rradius 24.9043
rwrist 16.6434
rhand -27.7384 -43.9807
rfingers 7.12502
rthumb -1.13328 286.043
lclavicle 1.47896e-013 1.46306e-013
lhumerus 54.7286 13.3442 36.5981
lradius 43.5117
lwrist 2.63247
lhand -52.1755 -29.151
lfingers 7.12502
lthumb -24.6757 -0.72204
rfemur -76.0185 -14.6669 37.3626
rtibia 43.3461
rfoot 13.5996 20.4954
rtoes -43.8521
lfemur 15.8454 58.1084 14.4892
ltibia 122.993
lfoot 25.7861 -59.0295
ltoes 20.8631
2392
root -9.5377 8.57117 -6.64982 959.948 -38.0584 -611.711
lowerback 2.37172 -5.27153 -2.48232
upperback 5.55315 -7.28758 -3.0186
thorax 4.3277 -3.80963 -1.85351
lowerneck -4.88584 9.00174 2.56703
upperneck -1.50301 11.8591 -23.2464
head 2.04998 5.3085 -6.99984
rclavicle 4.77083e-015 1.39944e-013
rhumerus -20.3356 -47.383 -51.0801
rradius 25.6527
rwrist 17.2469
rhand -30.7332 -47.284
rfingers 7.12502
rthumb -4.02554 282.774
lclavicle 4.77083e-015 1.39944e-013
lhumerus 55.249 9.9857 37.0368
lradius 45.5739
lwrist 2.59949
lhand -52.5233 -24.027
lfingers 7.12502
lthumb -25.009 4.35598
rfemur -78.6944 -17.2009 42.6167
rtibia 48.4813
rfoot 12.4895 27.9155
rtoes -50.8457
lfemur 18.103 57.7812 16.6301
ltibia 123.011
lfoot 34.0772 -58.4634
ltoes 21.2164
2393
root -9.61588 8.42042 -6.64726 958.389 -35.9783 -610.327
lowerback 2.56694 -5.0352 -2.31842
upperback 5.75371 -6.99802 -3.59903
thorax 4.33856 -3.66499 -2.5255
lowerneck -5.01539 9.13256 2.41157
upperneck -1.22908 12.1115 -23.0828
head 2.1624 5.41007 -6.89407
rclavicle 2.54444e-014 2.54444e-014
rhumerus -19.3959 -47.2181 -53.086
rradius 26.5074
rwrist 17.6185
rhand -34.2979 -51.81
rfingers 7.12502
rthumb -7.46717 278.342
lclavicle 2.54444e-014 2.54444e-014
lhumerus 55.6249 6.32423 37.3862
lradius 47.4338
lwrist 2.41729
lhand -51.8206 -20.6563
lfingers 7.12502
lthumb -24.3355 7.81878
rfemur -80.7171 -19.272 46.3782
rtibia 53.5052
rfoot 9.63923 32.6866
rtoes -54.1292
lfemur 19.7635 57.1184 18.6317
ltibia 123.206
lfoot 40.7036 -57.7898
ltoes 23.0529
2394
root -9.68971 8.26823 -6.64868 957.031 -34.0631 -609.192
lowerback 2.76529 -4.81595 -2.16897
upperback 5.93938 -6.73429 -4.17756
thorax 4.34176 -3.53451 -3.19174
lowerneck -5.09633 9.24126 2.24733
upperneck -1.01199 12.3199 -22.7674
head 2.23107 5.50483 -6.74543
rclavicle -3.02153e-014 -3.18055e-015
rhumerus -18.8605 -47.2327 -54.9176
rradius 27.5883
rwrist 17.7968
rhand -38.1389 -57.7245
rfingers 7.12502
rthumb -11.1732 272.593
lclavicle -3.02153e-014 -3.18055e-015
lhumerus 55.8648 2.33693 37.6214
lradius 49.096
lwrist 2.28051
lhand -50.5255 -19.0182
lfingers 7.12502
lthumb -23.0933 9.61794
rfemur -81.8484 -20.6895 48.5337
rtibia 57.9209
rfoot 7.15937 34.6937
rtoes -54.6967
lfemur 20.244 56.2723 19.8854
ltibia 123.503
lfoot 45.2059 -57.254
ltoes 25.6633
2395
root -9.75433 8.12542 -6.66091 955.871 -32.279 -608.271
lowerback 2.94156 -4.61178 -2.10155
upperback 6.06847 -6.49175 -4.75654
thorax 4.31379 -3.41793 -3.81708
lowerneck -5.13267 9.31392 2.24225
upperneck -0.786474 12.4737 -22.4479
head 2.29711 5.57832 -6.62724
rclavicle -4.45278e-014 1.30403e-013
rhumerus -18.7874 -47.3855 -56.5457
rradius 29.0117
rwrist 17.8955
rhand -41.6604 -64.608
rfingers 7.12502
rthumb -14.5679 94.0764
lclavicle -4.45278e-014 1.30403e-013
lhumerus 55.8956 -1.98252 37.6889
lradius 50.6142
lwrist 2.3146
lhand -48.7082 -19.1797
lfingers 7.12502
lthumb -21.3488 9.66425
rfemur -82.0405 -21.385 49.2897
rtibia 61.5025
rfoot 6.88416 34.8223
rtoes -52.8295
lfemur 19.2128 55.3778 19.9603
ltibia 123.797
lfoot 47.3334 -56.9724
ltoes 28.6947
2396
root -9.80827 7.99756 -6.68946 954.855 -30.5669 -607.498
lowerback 3.09287 -4.41504 -2.17353
upperback 6.12241 -6.2613 -5.3372
thorax 4.24111 -3.31356 -4.36955
lowerneck -4.99073 9.37626 2.36207
upperneck -0.633183 12.5889 -22.12
head 2.31368 5.65298 -6.53871
rclavicle -2.22639e-014 8.5875e-014
rhumerus -19.2363 -47.4015 -57.9941
rradius 30.9456
rwrist 17.8897
rhand -44.3654 -71.4866
rfingers 7.12502
rthumb -17.1729 100.748
lclavicle -2.22639e-014 8.5875e-014
lhumerus 55.7264 -6.61655 37.6678
lradius 51.9673
lwrist 2.56966
lhand -46.8184 -20.6077
lfingers 7.12502
lthumb -19.5327 8.43113
rfemur -81.3889 -21.3635 48.9658
rtibia 64.3002
rfoot 9.27845 33.8846
rtoes -47.7597
lfemur 16.5834 54.5174 18.6628
ltibia 123.995
lfoot 46.5665 -57.0412
ltoes 30.3863
2397
root -9.85872 7.87483 -6.73117 953.906 -28.8766 -606.783
lowerback 3.23489 -4.23519 -2.40944
upperback 6.10921 -6.0595 -5.90299
thorax 4.12412 -3.23182 -4.81638
lowerneck -4.83589 9.43526 2.7252
upperneck -0.460437 12.6979 -21.9476
head 2.36152 5.72062 -6.53805
rclavicle 3.97569e-014 -3.18055e-015
rhumerus -20.0735 -47.1712 -59.3626
rradius 33.3816
rwrist 17.9168
rhand -46.1076 -76.68
rfingers 7.12502
rthumb -18.8492 105.787
lclavicle 3.97569e-014 -3.18055e-015
lhumerus 55.3126 -11.4455 37.5905
lradius 53.1533
lwrist 3.09333
lhand -44.8091 -23.3117
lfingers 7.12502
lthumb -17.6 5.91172
rfemur -80.0765 -20.4793 47.6998
rtibia 66.598
rfoot 13.1378 31.9743
rtoes -38.2918
lfemur 12.9036 53.5558 16.509
ltibia 124.069
lfoot 42.3873 -57.5028
ltoes 29.7771
